<?xml version="1.0" encoding="UTF-8"?>
<svg xmlns="http://www.w3.org/2000/svg" version="1.1" viewBox="0 0 1443.6 444.4">
  <defs>
    <style>
      .cls-1 {
        isolation: isolate;
      }

      .cls-2 {
        fill: #c19649;
      }
    </style>
  </defs>
  <!-- Generator: Adobe Illustrator 28.6.0, SVG Export Plug-In . SVG Version: 1.2.0 Build 709)  -->
  <g>
    <g id="a">
      <g>
        <path class="cls-2" d="M266.4,360.1c-76,0-137.9-61.9-137.9-137.9s61.9-137.9,137.9-137.9,137.9,61.9,137.9,137.9-61.9,137.9-137.9,137.9ZM266.4,93.8c-70.8,0-128.5,57.6-128.5,128.5s57.6,128.5,128.5,128.5,128.5-57.6,128.5-128.5-57.6-128.5-128.5-128.5h0Z"/>
        <polygon class="cls-2" points="142.1 260.6 134.8 254.6 194.9 181.2 208.6 196.7 266.4 124.3 270.1 128.9 324.2 196.7 338 181.2 397.9 254.5 390.6 260.5 337.7 195.7 323.8 211.3 266.4 139.4 209 211.3 195.1 195.7 142.1 260.6"/>
        <g>
          <rect class="cls-2" x="255.6" y="207.3" width="21.6" height="84.8"/>
          <rect class="cls-2" x="224" y="238.9" width="84.8" height="21.6"/>
        </g>
      </g>
      <g>
        <g class="cls-1">
          <g class="cls-1">
            <path class="cls-2" d="M567.7,143.9v105h-19.1v-45h-53.2v45h-19.1v-105h19.1v43.4h53.2v-43.4h19.1Z"/>
            <path class="cls-2" d="M672.5,232.6v16.3h-77.2v-105h75.1v16.4h-56v27.3h49.7v16.1h-49.7v28.9h58.1Z"/>
          </g>
          <g class="cls-1">
            <path class="cls-2" d="M693.8,143.9h19.1v88.5h53.8v16.5h-72.9v-105Z"/>
          </g>
          <g class="cls-1">
            <path class="cls-2" d="M868.6,143.9l-44.8,105h-18.8l-45-105h20.7l34.3,81,34.5-81h19.1Z"/>
          </g>
          <g class="cls-1">
            <path class="cls-2" d="M956.7,232.6v16.3h-77.2v-105h75.1v16.4h-56v27.3h49.7v16.1h-49.7v28.9h58.1Z"/>
            <path class="cls-2" d="M998.9,160.4h-34.1v-16.5h87.3v16.5h-34.1v88.5h-19.1v-88.5Z"/>
            <path class="cls-2" d="M1066.5,143.9h19.1v105h-19.1v-105Z"/>
          </g>
          <g class="cls-1">
            <path class="cls-2" d="M1132.9,243.5c-8.4-4.7-14.9-11.1-19.7-19.3-4.8-8.2-7.1-17.4-7.1-27.7s2.4-19.5,7.2-27.8c4.8-8.2,11.4-14.6,19.8-19.3s17.8-7,28.2-7,16.1,1.5,23.1,4.5c7,3,12.8,7.4,17.6,13l-12.3,11.9c-7.4-8.2-16.6-12.3-27.5-12.3s-13.4,1.6-19,4.7c-5.6,3.1-9.9,7.5-13.1,13.1-3.1,5.6-4.7,12-4.7,19s1.6,13.5,4.7,19c3.1,5.6,7.5,10,13.1,13.1s11.9,4.7,19,4.7c10.9,0,20-4.1,27.5-12.4l12.3,12c-4.8,5.7-10.7,10-17.7,13-7,3-14.7,4.5-23.2,4.5s-19.8-2.3-28.2-7Z"/>
          </g>
          <g class="cls-1">
            <path class="cls-2" d="M1284.8,224.6h-51.4l-10.1,24.3h-19.7l46.3-105h18.8l46.5,105h-20l-10.3-24.3ZM1278.4,209.3l-19.4-45.9-19.3,45.9h38.7Z"/>
          </g>
        </g>
        <g class="cls-1">
          <g class="cls-1">
            <path class="cls-2" d="M505.5,313.5v-23.3s-11.4,19.4-11.4,19.4h-2.1l-11.3-19.3v23.2h-4.3v-32h3.7l13.1,22.5,12.9-22.5h3.7v32s-4.3,0-4.3,0Z"/>
            <path class="cls-2" d="M520.5,281.4h4.5v32h-4.5v-32Z"/>
            <path class="cls-2" d="M562.7,281.4v32h-3.7l-18.8-23.9v23.9h-4.5v-32h3.7l18.8,23.9v-23.9h4.5Z"/>
            <path class="cls-2" d="M596.1,309.5v4h-22.8v-32h22.1v4h-17.7v9.8h15.7v3.9h-15.7v10.3h18.3Z"/>
            <path class="cls-2" d="M625.7,313.5l-6.8-9.8c-.8,0-1.5,0-2,0h-7.8v9.7h-4.5v-32h12.2c4.1,0,7.3,1,9.6,3,2.3,2,3.5,4.7,3.5,8.2s-.6,4.6-1.8,6.3c-1.2,1.7-2.9,3-5.1,3.8l7.4,10.7h-4.9ZM623.3,297.9c1.5-1.2,2.2-3,2.2-5.4s-.7-4.1-2.2-5.3c-1.5-1.2-3.7-1.9-6.5-1.9h-7.6v14.4h7.6c2.8,0,5-.6,6.5-1.9Z"/>
            <path class="cls-2" d="M658.6,305.4h-16.7l-3.5,8h-4.6l14.2-32h4.4l14.3,32h-4.7l-3.5-8ZM657,301.8l-6.8-15.7-6.8,15.7h13.5Z"/>
            <path class="cls-2" d="M672.7,281.4h4.5v28h17v4h-21.5v-32Z"/>
            <path class="cls-2" d="M735,313.5l-6.8-9.8c-.8,0-1.5,0-2,0h-7.8v9.7h-4.5v-32h12.2c4.1,0,7.3,1,9.6,3,2.3,2,3.5,4.7,3.5,8.2s-.6,4.6-1.8,6.3c-1.2,1.7-2.9,3-5.1,3.8l7.4,10.7h-4.9ZM732.6,297.9c1.5-1.2,2.2-3,2.2-5.4s-.7-4.1-2.2-5.3c-1.5-1.2-3.7-1.9-6.5-1.9h-7.6v14.4h7.6c2.8,0,5-.6,6.5-1.9Z"/>
            <path class="cls-2" d="M770.6,309.5v4h-22.8v-32h22.1v4h-17.7v9.8h15.7v3.9h-15.7v10.3h18.3Z"/>
            <path class="cls-2" d="M781.5,312.7c-2.2-.7-3.9-1.7-5.2-2.9l1.7-3.6c1.2,1.1,2.7,2,4.6,2.7,1.9.7,3.8,1,5.8,1s4.5-.4,5.8-1.3c1.3-.9,1.9-2.1,1.9-3.6s-.4-2-1.1-2.7c-.7-.7-1.6-1.2-2.6-1.6-1-.4-2.5-.8-4.4-1.2-2.4-.6-4.3-1.2-5.7-1.7-1.5-.6-2.7-1.5-3.7-2.7s-1.5-2.8-1.5-4.9.4-3.2,1.3-4.6,2.2-2.5,4-3.3c1.8-.8,4-1.2,6.7-1.2s3.7.2,5.5.7c1.8.5,3.3,1.2,4.6,2.1l-1.5,3.7c-1.3-.9-2.7-1.5-4.2-1.9-1.5-.4-3-.7-4.4-.7-2.5,0-4.4.5-5.7,1.4-1.3.9-1.9,2.2-1.9,3.7s.4,2,1.1,2.7c.7.7,1.6,1.2,2.7,1.6s2.5.8,4.3,1.2c2.4.6,4.3,1.2,5.7,1.7,1.4.6,2.7,1.5,3.7,2.7s1.5,2.8,1.5,4.8-.4,3.2-1.3,4.6c-.9,1.4-2.3,2.5-4.1,3.3-1.8.8-4.1,1.2-6.7,1.2s-4.6-.4-6.8-1.1Z"/>
            <path class="cls-2" d="M813.9,311.7c-2.5-1.4-4.5-3.4-6-5.9-1.4-2.5-2.2-5.3-2.2-8.4s.7-5.9,2.2-8.4c1.4-2.5,3.4-4.5,6-5.9s5.4-2.1,8.6-2.1,6,.7,8.5,2.1c2.5,1.4,4.5,3.4,6,5.9,1.4,2.5,2.2,5.3,2.2,8.4s-.7,5.9-2.2,8.4c-1.4,2.5-3.4,4.4-6,5.9-2.5,1.4-5.4,2.1-8.5,2.1s-6-.7-8.6-2.1ZM828.7,308.1c1.8-1.1,3.3-2.5,4.3-4.4,1.1-1.9,1.6-4,1.6-6.3s-.5-4.4-1.6-6.3c-1.1-1.9-2.5-3.3-4.3-4.4s-3.9-1.6-6.2-1.6-4.4.5-6.3,1.6c-1.9,1.1-3.3,2.5-4.4,4.4-1.1,1.9-1.6,4-1.6,6.3s.5,4.4,1.6,6.3c1.1,1.9,2.5,3.3,4.4,4.4,1.9,1.1,4,1.6,6.3,1.6s4.4-.5,6.2-1.6Z"/>
            <path class="cls-2" d="M850.5,310.2c-2.3-2.4-3.5-5.9-3.5-10.5v-18.2h4.5v18c0,6.9,2.9,10.3,8.8,10.3s5.1-.8,6.6-2.5c1.5-1.7,2.3-4.3,2.3-7.8v-18h4.3v18.2c0,4.6-1.2,8.1-3.5,10.5s-5.6,3.6-9.8,3.6-7.4-1.2-9.8-3.7Z"/>
            <path class="cls-2" d="M905,313.5l-6.8-9.8c-.8,0-1.5,0-2,0h-7.8v9.7h-4.5v-32h12.2c4.1,0,7.3,1,9.6,3,2.3,2,3.5,4.7,3.5,8.2s-.6,4.6-1.8,6.3c-1.2,1.7-2.9,3-5.1,3.8l7.4,10.7h-4.9ZM902.7,297.9c1.5-1.2,2.2-3,2.2-5.4s-.7-4.1-2.2-5.3c-1.5-1.2-3.7-1.9-6.5-1.9h-7.6v14.4h7.6c2.8,0,5-.6,6.5-1.9Z"/>
            <path class="cls-2" d="M923.5,311.7c-2.5-1.4-4.5-3.4-5.9-5.9-1.4-2.5-2.2-5.3-2.2-8.4s.7-5.9,2.2-8.4c1.4-2.5,3.4-4.4,6-5.9s5.4-2.1,8.5-2.1,4.7.4,6.7,1.3c2,.8,3.8,2.1,5.2,3.7l-2.9,2.9c-2.4-2.5-5.3-3.8-8.8-3.8s-4.4.5-6.3,1.6-3.4,2.5-4.4,4.4c-1.1,1.9-1.6,4-1.6,6.3s.5,4.4,1.6,6.3c1.1,1.9,2.5,3.3,4.4,4.4s4,1.6,6.3,1.6c3.5,0,6.4-1.3,8.8-3.8l2.9,2.9c-1.4,1.6-3.2,2.9-5.2,3.8-2,.9-4.3,1.3-6.7,1.3s-6-.7-8.5-2.1Z"/>
            <path class="cls-2" d="M974.4,309.5v4h-22.8v-32h22.1v4h-17.7v9.8h15.7v3.9h-15.7v10.3h18.3Z"/>
            <path class="cls-2" d="M985.3,312.7c-2.2-.7-3.9-1.7-5.2-2.9l1.7-3.6c1.2,1.1,2.7,2,4.6,2.7,1.9.7,3.8,1,5.8,1s4.5-.4,5.8-1.3c1.3-.9,1.9-2.1,1.9-3.6s-.4-2-1.1-2.7c-.7-.7-1.6-1.2-2.6-1.6-1-.4-2.5-.8-4.4-1.2-2.4-.6-4.3-1.2-5.7-1.7-1.5-.6-2.7-1.5-3.7-2.7s-1.5-2.8-1.5-4.9.4-3.2,1.3-4.6,2.2-2.5,4-3.3c1.8-.8,4-1.2,6.7-1.2s3.7.2,5.5.7c1.8.5,3.3,1.2,4.6,2.1l-1.5,3.7c-1.3-.9-2.7-1.5-4.2-1.9-1.5-.4-3-.7-4.4-.7-2.5,0-4.4.5-5.7,1.4-1.3.9-1.9,2.2-1.9,3.7s.4,2,1.1,2.7c.7.7,1.6,1.2,2.7,1.6s2.5.8,4.3,1.2c2.4.6,4.3,1.2,5.7,1.7,1.4.6,2.7,1.5,3.7,2.7s1.5,2.8,1.5,4.8-.4,3.2-1.3,4.6c-.9,1.4-2.3,2.5-4.1,3.3-1.8.8-4.1,1.2-6.7,1.2s-4.6-.4-6.8-1.1Z"/>
          </g>
        </g>
      </g>
    </g>
  </g>
</svg>